<svg xmlns="http://www.w3.org/2000/svg" xmlns:xlink="http://www.w3.org/1999/xlink" width="1280" zoomAndPan="magnify" viewBox="0 0 960 599.999999" height="800" preserveAspectRatio="xMidYMid meet" version="1.0"><defs><clipPath id="82bfc4c90f"><path d="M 71.550781 7 L 900 7 L 900 599.871094 L 71.550781 599.871094 Z M 71.550781 7 " clip-rule="nonzero"/></clipPath></defs><g clip-path="url(#82bfc4c90f)"><path fill="#163477" d="M 163.625 445.371094 L 163.625 57.382812 C 163.625 29.882812 184.574219 7.269531 210.8125 7.269531 L 751.632812 7.269531 C 777.871094 7.269531 798.824219 29.882812 798.824219 57.382812 L 798.824219 445.371094 C 798.824219 451.761719 793.667969 456.945312 787.3125 456.945312 L 175.132812 456.945312 C 168.777344 456.945312 163.625 451.761719 163.625 445.371094 Z M 71.550781 487.3125 C 71.550781 480.921875 76.703125 475.742188 83.058594 475.742188 L 888.363281 475.742188 C 894.722656 475.742188 899.875 480.921875 899.875 487.3125 L 899.875 540.203125 C 899.875 572.164062 879.285156 599.339844 852.339844 599.339844 L 119.085938 599.339844 C 92.136719 599.339844 71.550781 572.164062 71.550781 540.203125 Z M 428.335938 533.605469 C 412.992188 533.605469 412.992188 556.753906 428.335938 556.753906 L 548.378906 556.753906 C 563.726562 556.753906 563.726562 533.605469 548.378906 533.605469 Z M 420.335938 320.414062 L 420.335938 301.433594 C 420.335938 299.367188 419.304688 297.945312 417.238281 297.171875 L 286.683594 238.289062 C 285.136719 237.511719 285.136719 236.738281 286.683594 235.964844 L 417.238281 177.078125 C 419.304688 176.304688 420.335938 174.882812 420.335938 172.820312 L 420.335938 153.835938 C 420.335938 151.511719 419.304688 150.351562 417.238281 150.351562 L 415.6875 150.738281 L 259.566406 223.566406 C 257.761719 224.601562 256.855469 226.019531 256.855469 227.828125 L 256.855469 246.421875 C 256.855469 248.230469 257.761719 249.652344 259.566406 250.683594 L 415.6875 323.515625 C 416.980469 324.03125 418.074219 323.96875 418.980469 323.320312 C 419.882812 322.675781 420.335938 321.707031 420.335938 320.414062 Z M 428.082031 368.839844 L 447.453125 368.839844 C 449.777344 368.839844 451.328125 367.808594 452.101562 365.742188 L 537.71875 101.925781 C 538.492188 99.082031 537.460938 97.664062 534.617188 97.664062 L 515.246094 97.664062 C 512.921875 97.664062 511.375 98.695312 510.601562 100.761719 L 424.984375 364.578125 C 424.210938 367.421875 425.242188 368.839844 428.082031 368.839844 Z M 554.375 323.902344 L 555.925781 323.515625 L 712.046875 250.683594 C 713.851562 249.652344 714.757812 248.230469 714.757812 246.421875 L 714.757812 227.828125 C 714.757812 226.019531 713.851562 224.601562 712.046875 223.566406 L 555.925781 150.738281 C 554.632812 150.222656 553.535156 150.285156 552.632812 150.929688 C 551.726562 151.574219 551.277344 152.542969 551.277344 153.835938 L 551.277344 172.820312 C 551.277344 174.882812 552.308594 176.304688 554.375 177.078125 L 684.925781 235.964844 C 686.476562 236.738281 686.476562 237.511719 684.925781 238.289062 L 554.375 297.171875 C 552.308594 297.945312 551.277344 299.367188 551.277344 301.433594 L 551.277344 320.414062 C 551.277344 322.742188 552.308594 323.902344 554.375 323.902344 Z M 554.375 323.902344 " fill-opacity="1" fill-rule="nonzero"/></g></svg>